# xmcd CD database file
#
# Track frame offsets:
#	225
#	30667
#	60340
#	136273
#	171908
#	193788
#	224961
#
# Disc length: 4416 seconds
#
# Revision: 0
# Processed by: cddbd v1.5PL3 Copyright (c) Steve Scherf et al.
# Submitted via: CDex 1.51
#
DISCID=69113d07
DTITLE=Mike Westbrook - The Orchestra of Smith's Academy
DYEAR=1998
DGENRE=Jazz
TTITLE0=Checking in at Hotel Le Prieure
TTITLE1=It Don't Mean A Thing
TTITLE2=Measure for Measure
TTITLE3=So We'll Go No More A Roving
TTITLE4=Blighters
TTITLE5=Viennese Waltz
TTITLE6=Blues for Terenzi
EXTD=YEAR: 1998
EXTT0=
EXTT1=
EXTT2=
EXTT3=
EXTT4=
EXTT5=
EXTT6=
PLAYORDER=
